<svg id="07f24c57-64e1-4d62-80d2-e4418e322af1" data-name="Calque 1" xmlns="http://www.w3.org/2000/svg" viewBox="0 0 250 250"><defs><style>.dc54acbe-ccd8-4b90-a2a3-a4fdd39b46d3{fill:#c96;}</style></defs><title>FaviconSVG</title><path class="dc54acbe-ccd8-4b90-a2a3-a4fdd39b46d3" d="M155.65625,215.81152c0,13.14453,2.32031,15.20606,16.49512,15.20606h15.46386c24.48536,0,42.26954-14.69141,47.68165-37.62988.25781-1.03028,2.835-.77247,2.835.25781-1.03125,10.82519-2.31935,27.57812-2.31935,40.207,0,2.835-.77343,3.86621-3.8662,3.86621H111.32568c-.77343,0-.77343-3.09277,0-3.09277,16.75245,0,19.58838-2.835,19.58838-17.78418V97.50977c0-14.69043-2.83593-17.78321-19.58838-17.78321-.77343,0-.77343-3.09277,0-3.09277,8.24756,0,19.8462.77344,31.70166.77344,12.62891,0,23.45313-.77344,31.959-.77344,1.03125,0,1.03125,3.09277,0,3.09277-16.752,0-19.33008,3.35059-19.33008,18.041Z"/><polygon class="dc54acbe-ccd8-4b90-a2a3-a4fdd39b46d3" points="12.141 237.859 71.141 237.859 12.141 178.859 12.141 237.859"/><polygon class="dc54acbe-ccd8-4b90-a2a3-a4fdd39b46d3" points="179.417 11.583 238.417 70.583 238.417 11.583 179.417 11.583"/><polygon class="dc54acbe-ccd8-4b90-a2a3-a4fdd39b46d3" points="144.705 11.965 12.802 11.965 12.802 23.956 72.758 23.956 72.758 218.514 84.749 218.514 84.749 23.956 144.705 23.956 144.723 23.956 156.714 11.965 144.705 11.965"/><polygon class="dc54acbe-ccd8-4b90-a2a3-a4fdd39b46d3" points="84.749 230.5 84.749 218.514 72.763 218.514 84.749 230.5"/></svg>