<svg xmlns="http://www.w3.org/2000/svg" xmlns:xlink="http://www.w3.org/1999/xlink" viewBox="0 0 13300 1080"><defs><style>.\33 95f12e6-0136-41df-bbd5-9e171754aba0{fill:url(#b5db193d-580e-4f92-8b04-abbeba13f8ef);}.\34 c323167-01dc-43ce-acb6-5d858d70178f{fill:#a35a0a;}.e7eef477-04a7-4f14-af50-553ebf56b601{fill:#f4ef4e;}.b9529336-f84e-4656-8d20-ff54ab117f12{fill:#e2a100;}</style><linearGradient id="b5db193d-580e-4f92-8b04-abbeba13f8ef" y1="349" x2="13300" y2="349" gradientUnits="userSpaceOnUse"><stop offset="0" stop-color="#eeffbf"/><stop offset="0.1" stop-color="#e5f9c1"/><stop offset="0.27" stop-color="#cbe7c5"/><stop offset="0.31" stop-color="#c5e3c6"/><stop offset="0.34" stop-color="#b4dcc8"/><stop offset="0.42" stop-color="#86c8cc"/><stop offset="0.52" stop-color="#3eaad4"/><stop offset="0.56" stop-color="#1e9cd7"/><stop offset="0.64" stop-color="#1570a3"/><stop offset="0.72" stop-color="#0e4975"/><stop offset="0.8" stop-color="#082b51"/><stop offset="0.88" stop-color="#041537"/><stop offset="0.95" stop-color="#010827"/><stop offset="1" stop-color="#000322"/></linearGradient></defs><title>Fond</title><g id="1616bc07-a0c4-484c-8912-db728822a4c7" data-name="sol"><rect class="395f12e6-0136-41df-bbd5-9e171754aba0" width="13300" height="698"/><rect class="4c323167-01dc-43ce-acb6-5d858d70178f" y="772" width="13300" height="308"/><path class="e7eef477-04a7-4f14-af50-553ebf56b601" d="M13300,772H0V232c256-9,718,176,1171,175s732-145,732-145,960,114,1167,162,637-36,703-126c0,0,840,81,1089,171s948-108,969-141c0,0,972,126,1281,129s1089,66,1275-72c0,0,1008,144,1368,78s336-144,336-144,1199.44,156.5,1373,183c583,89,1281.62-133.37,1421-217,10-6,326,54,415,100Z"/><path class="b9529336-f84e-4656-8d20-ff54ab117f12" d="M0,232V388C115.16,318.75,53.09,289,0,232Z"/><path class="b9529336-f84e-4656-8d20-ff54ab117f12" d="M1903,262c33.44,13.52,75,30.81,73.9,49.17-4.77,78.19-727.9,94.83-728.24,94.24h0c0-.15,15.2-.54,16-.56,4.92-.13,68.17-2.41,153.36-13.85,62.6-8.41,138.84-18.65,237-44A1703.42,1703.42,0,0,0,1903,262Z"/><path class="b9529336-f84e-4656-8d20-ff54ab117f12" d="M3773,298c34.7,15.86,65.05,41.73,61.92,67.48C3822.87,464.69,3161,438,3161.11,436.32S3320.49,445.79,3498,409c52.21-10.82,119.74-28.35,196-66A767.79,767.79,0,0,0,3773,298Z"/><path class="b9529336-f84e-4656-8d20-ff54ab117f12" d="M5831,328c153,67,427.37,236.63-836.81,163.32,105.88,1.46,186.54-6.06,240.81-13.32,38.92-5.21,87.6-13.42,97-15,27.46-4.63,78.14-13.23,138-26,74.21-15.84,173.1-37.33,293-82C5792,344.2,5815.51,334.54,5831,328Z"/><path class="b9529336-f84e-4656-8d20-ff54ab117f12" d="M8387,385a65.59,65.59,0,0,1,4.3,16.76h0c0,46.93-91.71,70.48-212.3,82.24-252.34,24.6-733.81-14-733.81-16.56C7445.19,466,7653,482,8045,437,8165.65,423.15,8279.81,405.34,8387,385Z"/><path class="b9529336-f84e-4656-8d20-ff54ab117f12" d="M10091,319c121,89,352.79,214.25-628.61,161.13,142.57,7.23,342-6.82,541.61-110.13A960.12,960.12,0,0,0,10091,319Z"/><path class="b9529336-f84e-4656-8d20-ff54ab117f12" d="M12885,285c140,182,192.71,309.69-1275.65,232.85,303.36,9.93,673.45-20.1,1068.65-153.85C12750.45,339.48,12819.44,312.93,12885,285Z"/><path class="b9529336-f84e-4656-8d20-ff54ab117f12" d="M7543.69,628.22q-1.47,2.37-3.1,4.62C7541.55,631.26,7542.59,629.71,7543.69,628.22Z"/><path class="b9529336-f84e-4656-8d20-ff54ab117f12" d="M1975.89,583a80.25,80.25,0,0,1-2.3-8.91A63.28,63.28,0,0,1,1975.89,583Z"/><path class="b9529336-f84e-4656-8d20-ff54ab117f12" d="M3806.13,613.75a80.43,80.43,0,0,1-10.4,9.46c.86-1,1.75-1.91,2.66-2.82A65.32,65.32,0,0,1,3806.13,613.75Z"/><path class="b9529336-f84e-4656-8d20-ff54ab117f12" d="M5884.44,632.9q-1.65-2.28-3.13-4.68Q5883,630.49,5884.44,632.9Z"/><path class="b9529336-f84e-4656-8d20-ff54ab117f12" d="M9644.73,654.16a80.24,80.24,0,0,1-3.81-12.46A64.21,64.21,0,0,1,9644.73,654.16Z"/><path class="b9529336-f84e-4656-8d20-ff54ab117f12" d="M11344.05,679.82a65.71,65.71,0,0,0-7.66,6.57c-.9.9-1.76,1.81-2.6,2.76A80.37,80.37,0,0,0,11344.05,679.82Z"/><path class="b9529336-f84e-4656-8d20-ff54ab117f12" d="M11383,697.68a84.64,84.64,0,0,0-38.92,9.06h0a77.38,77.38,0,0,1-10.26,6.61h0c-13.8,7.48-31.06,11.92-49.78,11.92H9721c-34.64,0-64.26-15.19-76.27-36.69a45.38,45.38,0,0,1-3.81-8.82h0C9631,662.9,9607.35,651,9580,651H7597c-18.15,0-34.65,5.25-46.61,13.73a54.81,54.81,0,0,0-6.7,5.54q-1.47,1.68-3.1,3.27l0,0a68,68,0,0,1-6.49,5.6l0,0a77.33,77.33,0,0,1-10.26,6.6h0c-13.8,7.47-31.06,11.92-49.78,11.92H5951c-27.4,0-51.66-9.51-66.55-24.13h0c-1.1-1.07-2.14-2.18-3.13-3.31-12-11.66-31.47-19.27-53.31-19.27H3845a84.81,84.81,0,0,0-38.85,9h0a76.89,76.89,0,0,1-10.4,6.69c-14.49,7.85-32.08,11.89-49.79,11.89H2054c-36.57,0-67.54-16.94-78.11-40.34a43.73,43.73,0,0,1-2.3-6.31C1964.79,613.42,1940,600,1911,600H0V846.32H1917a84.64,84.64,0,0,0,38.92-9.06h0a77.38,77.38,0,0,1,10.26-6.61h0c13.8-7.48,31.06-11.92,49.78-11.92H3579c34.64,0,64.26,15.19,76.27,36.69a45.38,45.38,0,0,1,3.81,8.82h0c10,16.86,33.57,28.8,60.92,28.8H5703c18.15,0,34.65-5.25,46.61-13.73a54.81,54.81,0,0,0,6.7-5.54q1.47-1.68,3.1-3.27l0,0a68,68,0,0,1,6.49-5.6l0,0a77.33,77.33,0,0,1,10.26-6.6h0c13.8-7.47,31.06-11.92,49.78-11.92H7349c27.4,0,51.66,9.51,66.55,24.13h0c1.1,1.07,2.14,2.18,3.13,3.31,12,11.66,31.47,19.27,53.31,19.27H9455a84.81,84.81,0,0,0,38.85-9h0a76.89,76.89,0,0,1,10.4-6.69c14.49-7.85,32.08-11.89,49.79-11.89H11246c36.57,0,67.54,16.94,78.11,40.34a43.73,43.73,0,0,1,2.3,6.31c8.8,18.5,33.59,31.92,62.59,31.92h1911V697.68Z"/><rect class="4c323167-01dc-43ce-acb6-5d858d70178f" x="1376" y="792" width="382" height="28" rx="14" ry="14"/><rect class="4c323167-01dc-43ce-acb6-5d858d70178f" x="3930" y="820" width="382" height="28" rx="14" ry="14"/><rect class="4c323167-01dc-43ce-acb6-5d858d70178f" x="467" y="772" width="382" height="20" rx="10" ry="10"/><rect class="4c323167-01dc-43ce-acb6-5d858d70178f" x="105" y="642" width="382" height="20" rx="10" ry="10"/><rect class="4c323167-01dc-43ce-acb6-5d858d70178f" x="4420" y="857" width="382" height="20" rx="10" ry="10"/><rect class="4c323167-01dc-43ce-acb6-5d858d70178f" x="4798" y="692" width="382" height="20" rx="10" ry="10"/><rect class="4c323167-01dc-43ce-acb6-5d858d70178f" x="33" y="792" width="251" height="28" rx="14" ry="14"/><rect class="4c323167-01dc-43ce-acb6-5d858d70178f" x="4994" y="829" width="251" height="28" rx="14" ry="14"/><rect class="4c323167-01dc-43ce-acb6-5d858d70178f" x="5539" y="833" width="159" height="19" rx="9.5" ry="9.5"/><rect class="4c323167-01dc-43ce-acb6-5d858d70178f" x="1092" y="801" width="110" height="19" rx="9.5" ry="9.5"/><rect class="4c323167-01dc-43ce-acb6-5d858d70178f" x="960" y="633" width="110" height="19" rx="9.5" ry="9.5"/><rect class="4c323167-01dc-43ce-acb6-5d858d70178f" x="409" y="818" width="69.47" height="12" rx="6" ry="6"/><rect class="4c323167-01dc-43ce-acb6-5d858d70178f" x="1816" y="666" width="69.47" height="12" rx="6" ry="6"/><rect class="4c323167-01dc-43ce-acb6-5d858d70178f" x="5371" y="858" width="110" height="19" rx="9.5" ry="9.5"/><rect class="4c323167-01dc-43ce-acb6-5d858d70178f" x="3741" y="848" width="110" height="19" rx="9.5" ry="9.5"/><rect class="4c323167-01dc-43ce-acb6-5d858d70178f" x="3866" y="672" width="110" height="19" rx="9.5" ry="9.5"/><rect class="4c323167-01dc-43ce-acb6-5d858d70178f" x="1851" y="814" width="40" height="20" rx="10" ry="10"/><rect class="4c323167-01dc-43ce-acb6-5d858d70178f" x="4890" y="857" width="40" height="20" rx="10" ry="10"/><rect class="4c323167-01dc-43ce-acb6-5d858d70178f" x="4334" y="702" width="40" height="20" rx="10" ry="10"/><rect class="4c323167-01dc-43ce-acb6-5d858d70178f" x="5290" y="692" width="40" height="20" rx="10" ry="10"/><rect class="4c323167-01dc-43ce-acb6-5d858d70178f" x="4648" y="672" width="40" height="20" rx="10" ry="10"/><rect class="4c323167-01dc-43ce-acb6-5d858d70178f" x="11533" y="864" width="382" height="28" rx="14" ry="14"/><rect class="4c323167-01dc-43ce-acb6-5d858d70178f" x="12023" y="901" width="382" height="20" rx="10" ry="10"/><rect class="4c323167-01dc-43ce-acb6-5d858d70178f" x="11382" y="735" width="382" height="20" rx="10" ry="10"/><rect class="4c323167-01dc-43ce-acb6-5d858d70178f" x="12597" y="873" width="251" height="28" rx="14" ry="14"/><rect class="4c323167-01dc-43ce-acb6-5d858d70178f" x="13142" y="877" width="159" height="19" rx="9.5" ry="9.5"/><rect class="4c323167-01dc-43ce-acb6-5d858d70178f" x="12300" y="726" width="159" height="19" rx="9.5" ry="9.5"/><rect class="4c323167-01dc-43ce-acb6-5d858d70178f" x="12974" y="902" width="110" height="19" rx="9.5" ry="9.5"/><rect class="4c323167-01dc-43ce-acb6-5d858d70178f" x="11382" y="902" width="110" height="19" rx="9.5" ry="9.5"/><rect class="4c323167-01dc-43ce-acb6-5d858d70178f" x="12493" y="901" width="40" height="20" rx="10" ry="10"/><rect class="4c323167-01dc-43ce-acb6-5d858d70178f" x="12989" y="735" width="40" height="20" rx="10" ry="10"/><rect class="4c323167-01dc-43ce-acb6-5d858d70178f" x="12119" y="762" width="40" height="20" rx="10" ry="10"/><rect class="4c323167-01dc-43ce-acb6-5d858d70178f" x="871" y="814" width="40" height="20" rx="10" ry="10"/><rect class="4c323167-01dc-43ce-acb6-5d858d70178f" x="8884.05" y="831.16" width="382" height="28" rx="14" ry="14"/><rect class="4c323167-01dc-43ce-acb6-5d858d70178f" x="7997" y="821" width="382" height="20" rx="10" ry="10"/><rect class="4c323167-01dc-43ce-acb6-5d858d70178f" x="7541.05" y="831.16" width="251" height="28" rx="14" ry="14"/><rect class="4c323167-01dc-43ce-acb6-5d858d70178f" x="8600.05" y="840.16" width="110" height="19" rx="9.5" ry="9.5"/><rect class="4c323167-01dc-43ce-acb6-5d858d70178f" x="9115" y="672" width="110" height="19" rx="9.5" ry="9.5"/><rect class="4c323167-01dc-43ce-acb6-5d858d70178f" x="7885.05" y="856.16" width="69.47" height="12" rx="6" ry="6"/><rect class="4c323167-01dc-43ce-acb6-5d858d70178f" x="8105.05" y="766.16" width="69.47" height="12" rx="6" ry="6"/><rect class="4c323167-01dc-43ce-acb6-5d858d70178f" x="7706.05" y="675.16" width="69.47" height="12" rx="6" ry="6"/><rect class="4c323167-01dc-43ce-acb6-5d858d70178f" x="9359.05" y="853.16" width="40" height="20" rx="10" ry="10"/><rect class="4c323167-01dc-43ce-acb6-5d858d70178f" x="8797" y="712" width="40" height="20" rx="10" ry="10"/><rect class="4c323167-01dc-43ce-acb6-5d858d70178f" x="8435" y="671" width="40" height="20" rx="10" ry="10"/><rect class="4c323167-01dc-43ce-acb6-5d858d70178f" x="8435" y="846" width="40" height="20" rx="10" ry="10"/></g></svg>