<svg id="4eebb0eb-b644-486b-a864-3d3c56a8c1e7" data-name="Calque 1" xmlns="http://www.w3.org/2000/svg" xmlns:xlink="http://www.w3.org/1999/xlink" viewBox="0 0 8639.59686 1080"><defs><style>.c1526f28-c1de-44aa-8f1e-f1f3388a44f1{fill:url(#19c2d624-ca35-485b-bf4d-2de2f1a79821);}.\31 d622d84-84db-40aa-8405-2c0a8137d142{fill:#84744e;}.\32 a8b5f9a-2577-4a84-a7ff-5319a6d51802{fill:#adadad;}.\37 cb00b89-39a6-4a9b-8369-70d3923f142e{fill:#3a3a3a;}.\39 a67c09e-bb51-42ef-b4f8-ce0938a4f58d{fill:#666;}.\34 dc917f4-43c8-494d-bdf5-b396b678b72f{fill:none;stroke:#fff;stroke-miterlimit:10;}.\30 35fea4e-a7b8-49a6-a20e-b4f083d04f9e{fill:url(#0726523d-0ddc-4593-9c7e-e89f6a246fbb);}.ed9f5902-4d95-4f11-a215-ffa7859adc6d{fill:#c1a152;}.\33 ae28552-2cb3-47eb-823c-d7c3b7d04663{fill:#9e895a;}.\32 7514c9b-c977-4bbb-b95e-318298a0b376{fill:#e5e1c1;}.ed7ac3c5-d4f6-447f-99d1-907e7c08d59a{fill:#e5df00;}.\32 d791c5e-5219-4844-bf9c-97d14b29ff73{fill:#843907;}.\33 84ba881-c3c9-4efe-bee9-e087e99df1af{fill:#c96a36;}.\35 90b4e63-6a93-4263-8569-bc2684d8fcdd{fill:#42280d;}.\34 0834fff-b9c1-4462-ba35-7af0cdae641b{fill:#000322;}</style><linearGradient id="19c2d624-ca35-485b-bf4d-2de2f1a79821" x1="4.33013" y1="542.5" x2="6655.33013" y2="542.5" gradientUnits="userSpaceOnUse"><stop offset="0" stop-color="#eeffbf"/><stop offset="0.10186" stop-color="#e5f9c1"/><stop offset="0.27073" stop-color="#cbe7c5"/><stop offset="0.30656" stop-color="#c5e3c6"/><stop offset="0.34281" stop-color="#b4dcc8"/><stop offset="0.41501" stop-color="#86c8cc"/><stop offset="0.51547" stop-color="#3eaad4"/><stop offset="0.55705" stop-color="#1e9cd7"/><stop offset="0.63873" stop-color="#1570a3"/><stop offset="0.72305" stop-color="#0e4975"/><stop offset="0.80389" stop-color="#082b51"/><stop offset="0.87916" stop-color="#041537"/><stop offset="0.94671" stop-color="#010827"/><stop offset="1" stop-color="#000322"/></linearGradient><radialGradient id="0726523d-0ddc-4593-9c7e-e89f6a246fbb" cx="2022.25835" cy="562.97004" r="208.57433" gradientTransform="translate(0 -328.71219) scale(1 1.58389)" gradientUnits="userSpaceOnUse"><stop offset="0" stop-color="#d39c59"/><stop offset="0.27024" stop-color="#cc9655"/><stop offset="0.65362" stop-color="#ba8548"/><stop offset="1" stop-color="#a37139"/></radialGradient></defs><title>Ciel</title><path class="c1526f28-c1de-44aa-8f1e-f1f3388a44f1" d="M4.33013,0V1085h6651V0ZM2029.16534,296.594c-14.16162-10.38525-12.27344-8.49707-16.99414-11.32934-4.72046-2.83228-4.72046-2.83228-9.44117-7.553-4.72045-4.72058-2.83227-7.553,13.21778-7.553,9.44116,0,15.10583.94422,19.82641,15.106S2043.3272,306.97937,2029.16534,296.594ZM2139.627,277.71167c-4.72046,4.7207-4.72046,4.7207-9.44092,7.553-4.7207,2.83227-2.83252.94409-16.99414,11.32934-14.16187,10.38538-11.32959,2.8324-6.60889-11.32934,4.72046-14.16174,10.38526-15.106,19.82642-15.106C2142.45953,270.15869,2144.34771,272.99109,2139.627,277.71167Z"/><path class="1d622d84-84db-40aa-8405-2c0a8137d142" d="M2779.24039,286.41c6.12925-5.25168,26.40953-29.21827,98.3883-16.91341s96.51553-20.83586,106.41009-30.37664,74.46121-61.46169,105.22511-61.03579,24.92917,22.64423-1.12659,32.42716-61.13537,54.93315-54.67895,79.58754c0,0-3.4579,46.32917-16.41708,58.4958s-7.90414,40.14754,39.75427,51.60747,1.7809,27.385-33.21972,23.99922-50.53326,6.52168-79.58838,44.80932-66.53131,71.461-129.11957,29.42695S2731.86964,329.12412,2779.24039,286.41Z"/><path class="2a8b5f9a-2577-4a84-a7ff-5319a6d51802" d="M3537.001,154.60817c-7.99127,1.13447-8.89886-5.25842-8.89886-5.25842l-2.72792-13.47185-2.89507-.3019-.026-.122-.18205.10037-.20684-.02168.02348.12251-2.55,1.40355,2.72358,13.47273s1.64887,6.24291-6.155,8.30409,1.94316,13.67868,7.40588,12.2359c2.09975-.55449,3.8655-2.35446,5.33386-3.01926,1.6113.04172,3.93787,1.01374,6.088.70839C3540.52805,167.96639,3544.99229,153.4737,3537.001,154.60817Z"/><path class="2a8b5f9a-2577-4a84-a7ff-5319a6d51802" d="M3575.91045,131.05222c-7.99172,1.13128-8.89676-5.262-8.89676-5.262l-2.72254-13.47293-2.89495-.30306-.02594-.122-.18209.10029-.20683-.02176.02343.12252-2.55058,1.40253,2.7182,13.47381s1.64638,6.24357-6.15831,8.30164,1.93769,13.67945,7.401,12.23886c2.1-.55366,3.86643-2.35292,5.33506-3.01713,1.61129.04236,3.93747,1.01531,6.08775.71082C3579.43214,144.41186,3583.90216,129.92094,3575.91045,131.05222Z"/><path class="2a8b5f9a-2577-4a84-a7ff-5319a6d51802" d="M3546.91413,56.38656c7.76738-2.1943,9.52282,4.01948,9.52282,4.01948l4.50728,12.98525,2.90942-.08847.04209.11743.167-.12384.20789-.00621-.03968-.11826,2.33912-1.73237-4.50308-12.9867s-2.47-5.9659,4.98762-9.05349-3.75726-13.29529-8.9776-11.134c-2.00659.83067-3.51542,2.85086-4.88154,3.70629-1.60237.17441-4.03815-.47732-6.12806.11319C3541.63016,43.62091,3539.14674,58.58086,3546.91413,56.38656Z"/><path class="2a8b5f9a-2577-4a84-a7ff-5319a6d51802" d="M3494.48174,71.77821c7.42263-3.17046,9.959,2.76752,9.959,2.76752l6.13228,12.30152,2.87416-.46014.05678.11107.14975-.14419.20538-.03276-.05449-.11222,2.09814-2.01751-6.12831-12.3035s-3.21327-5.60068,3.78778-9.61742-5.42813-12.705-10.32889-9.89335c-1.88377,1.08067-3.1216,3.27738-4.367,4.30063-1.56687.37808-4.066.04348-6.06317.89663C3487.60726,59.7939,3487.0591,74.94867,3494.48174,71.77821Z"/><path class="7cb00b89-39a6-4a9b-8369-70d3923f142e" d="M3494.93823,85.37681s8.4537,18.05373-26.25239,31.6346S2934.97816,330.4748,2934.97816,330.4748l37.14818,36.40885,507.25263-222.258s13.01157-11.36119,32.42716,1.12658c0,0,66.54419-46.38757,90.00674-46.29569,0,0,7.55036-20.7122-7.60876-42.3741C3594.20411,57.08246,3544.12251,82.9871,3494.93823,85.37681Z"/><rect x="3461.72951" y="125.89189" width="29.67462" height="7.26428" transform="translate(2113.34359 -3071.24396) rotate(64.79696)"/><rect class="7cb00b89-39a6-4a9b-8369-70d3923f142e" x="2907.27355" y="322.70587" width="23.40713" height="83.13566" rx="11.70355" ry="11.70355" transform="translate(79.5632 1132.94225) rotate(-22.26114)"/><rect class="7cb00b89-39a6-4a9b-8369-70d3923f142e" x="2846.61646" y="347.68056" width="23.40713" height="83.13566" rx="11.70355" ry="11.70355" transform="translate(65.58106 1111.82486) rotate(-22.26113)"/><rect class="9a67c09e-bb51-42ef-b4f8-ce0938a4f58d" x="2774.75721" y="386.50457" width="40.35712" height="8.87857" transform="translate(60.21447 1087.93918) rotate(-22.26113)"/><rect class="9a67c09e-bb51-42ef-b4f8-ce0938a4f58d" x="2780.4803" y="399.88279" width="40.35712" height="8.87857" transform="translate(55.57298 1091.10437) rotate(-22.26113)"/><rect class="9a67c09e-bb51-42ef-b4f8-ce0938a4f58d" x="2788.6721" y="413.90932" width="40.35712" height="8.87857" transform="translate(50.8699 1095.2531) rotate(-22.26113)"/><rect class="9a67c09e-bb51-42ef-b4f8-ce0938a4f58d" x="2795.9537" y="426.37734" width="40.35712" height="8.87857" transform="translate(46.68938 1098.94086) rotate(-22.26113)"/><circle class="2a8b5f9a-2577-4a84-a7ff-5319a6d51802" cx="3518.11913" cy="93.57547" r="6.45714"/><circle class="2a8b5f9a-2577-4a84-a7ff-5319a6d51802" cx="3571.40275" cy="79.59531" r="6.45714"/><circle class="2a8b5f9a-2577-4a84-a7ff-5319a6d51802" cx="3559.22925" cy="103.84355" r="6.45714"/><circle class="2a8b5f9a-2577-4a84-a7ff-5319a6d51802" cx="3520.37145" cy="128.20944" r="6.45714"/><polyline class="4dc917f4-43c8-494d-bdf5-b396b678b72f" points="3518.538 100.019 3471.96 117.607 2813.511 383.058"/><line class="4dc917f4-43c8-494d-bdf5-b396b678b72f" x1="3571.39287" y1="85.66231" x2="2819.04128" y2="395.96409"/><line class="4dc917f4-43c8-494d-bdf5-b396b678b72f" x1="3555.97344" y1="98.2736" x2="2827.51517" y2="410.67976"/><polyline class="4dc917f4-43c8-494d-bdf5-b396b678b72f" points="3515.931 123.523 3482.663 139.155 2834.724 422.97"/><circle class="7cb00b89-39a6-4a9b-8369-70d3923f142e" cx="2909.23583" cy="444.57866" r="7.26428"/><circle class="7cb00b89-39a6-4a9b-8369-70d3923f142e" cx="2877.90865" cy="460.36634" r="7.26428"/><circle class="7cb00b89-39a6-4a9b-8369-70d3923f142e" cx="2855.88009" cy="469.88737" r="4.84285"/><circle class="7cb00b89-39a6-4a9b-8369-70d3923f142e" cx="2848.69639" cy="496.23766" r="4.84285"/><circle class="7cb00b89-39a6-4a9b-8369-70d3923f142e" cx="2871.45825" cy="497.9928" r="4.84285"/><circle class="7cb00b89-39a6-4a9b-8369-70d3923f142e" cx="2892.68136" cy="488.52414" r="4.84285"/><circle class="7cb00b89-39a6-4a9b-8369-70d3923f142e" cx="2907.63783" cy="469.75685" r="4.84285"/><rect class="035fea4e-a7b8-49a6-a20e-b4f083d04f9e" x="1972.74722" y="347.80528" width="194.02226" height="219.32951"/><path class="ed9f5902-4d95-4f11-a215-ffa7859adc6d" d="M1980.98494,125.587s87.83338-25.09525,181.94057,0c0,0,100.381,163.11913,106.65481,163.11913,0,0-43.91669,47.05359-40.77978,225.85725,0,0-15.68453,47.05359-47.0536,59.60122h-31.36906V182.0513s-10.97917-23.52679-76.8542-23.52679S1980.98494,125.587,1980.98494,125.587Z"/><path class="3ae28552-2cb3-47eb-823c-d7c3b7d04663" d="M2071.65067,114.44556v44.07133c-.41535.00945-.84039.00945-1.265.00945-65.87109,0-76.85152,23.52734-76.85152,23.52734V574.16459h-31.37255c-31.36378-12.54736-47.05512-59.602-47.05512-59.602,3.144-178.80652-40.77638-225.852-40.77638-225.852,6.27829,0,106.65669-163.12452,106.65669-163.12452C2013.01167,117.05122,2044.29985,114.3227,2071.65067,114.44556Z"/><path class="27514c9b-c977-4bbb-b95e-318298a0b376" d="M2194.38594,284.32054s.94411,32.1-37.7647,64.2-35.87646,26.43529-51.92646,57.59117-14.16176-77.41763-14.16176-77.41763Z"/><path class="27514c9b-c977-4bbb-b95e-318298a0b376" d="M1948.84894,284.32054s-.94411,32.1,37.7647,64.2,35.87646,26.43529,51.92646,57.59117,14.16176-77.41763,14.16176-77.41763Z"/><path class="ed7ac3c5-d4f6-447f-99d1-907e7c08d59a" d="M2071.95523,87s-9.41072,25.09525-18.82144,25.09525c0,0,6.27381,40.77978,18.82144,50.1905,12.54762-9.41072,18.82143-50.1905,18.82143-50.1905C2081.36594,112.09525,2071.95523,87,2071.95523,87Z"/><path class="2d791c5e-5219-4844-bf9c-97d14b29ff73" d="M2163.23006,124.7647c1.24745-1.03655,6.62911-5.34028,10.43877-3.52961,2.75168,1.30773,3.40859,5.19933,3.723,7.30608,3.959,26.52149-1.88823,61.36751-1.88823,61.36763-1.96061,11.68345-3.32885,18.67375-6.94627,19.36339-2.228.4247-3.7631-1.835-8.15961-6.14575-5.92609-5.81026-14.02116-11.74119-30.21176-23.60293-4.31629-3.1622-4.89622-3.46219-5.448-4.721-3.76264-8.58142,10.70062-23.11947,24.33039-36.82012C2155.046,131.9735,2160.152,127.42775,2163.23006,124.7647Z"/><path class="2d791c5e-5219-4844-bf9c-97d14b29ff73" d="M1981.05782,124.7647c-1.24745-1.03655-6.6291-5.34028-10.43876-3.52961-2.75168,1.30773-3.4086,5.19933-3.723,7.30608-3.959,26.52149,1.88824,61.36751,1.88824,61.36763,1.96061,11.68345,3.32884,18.67375,6.94627,19.36339,2.228.4247,3.7631-1.835,8.15961-6.14575,5.92608-5.81026,14.02115-11.74119,30.21175-23.60293,4.3163-3.1622,4.89623-3.46219,5.448-4.721,3.76264-8.58142-10.70061-23.11947-24.33038-36.82012C1989.24187,131.9735,1984.13589,127.42775,1981.05782,124.7647Z"/><path class="384ba881-c3c9-4efe-bee9-e087e99df1af" d="M2196.74615,167.25c.47217-9.91333.47217-8.96924-3.3042-39.18091-8.49707-38.70874-24.54712-31.15588-39.65308-23.6029-15.10571,7.55285-47.20581,43.42932-50.03833,47.20593-2.83227,3.77637-7.55273,6.60864-12.27344,6.60864s-19.82641-.94409-19.82641-.94409-15.106.94409-19.82642.94409c-4.7207,0-9.44116-2.83227-12.27368-6.60864-2.83227-3.77661-34.93225-39.65308-50.03808-47.20593s-31.156-15.10584-39.653,23.6029c-3.77649,30.21167-3.77649,29.26758-3.30444,39.18091,0,0,1.8883,46.26172,6.60876,59.47937,2.8324,7.55286-1.88818,17.93823-3.77636,33.98816-1.25025,10.62573-2.707,21.45825,1.92968,31.676,3.23242,7.123,8.33985,11.31885,12.7041,15.05787,5.66651,4.85461,10.35157,7.2163,25.49122,14.16174,24.80236,11.37817,27.30651,11.95666,31.15576,16.04993,4.06237,4.31982,8.97094,11.86035,10.38537,25.49121.22913,3.2622.6283,7.98877,1.18006,13.68969.70825,7.3169,1.65234,15.578,2.59643,19.3545,1.88819,7.553,5.66467,30.21167,36.82056,31.15576,31.156-.94409,34.93237-23.60279,36.82056-31.15576.94409-3.77649,1.88818-12.0376,2.59619-19.3545.552-5.70092.95117-10.42749,1.18017-13.68969,1.41455-13.63086,6.32324-21.17139,10.38526-25.49121,3.84936-4.09327,6.35351-4.67176,31.156-16.04993,15.13941-6.94544,19.82471-9.30713,25.49121-14.16174,4.36426-3.739,9.47144-7.93482,12.7041-15.05787,4.63672-10.21777,3.17994-21.05029,1.92969-31.676-1.88818-16.04993-6.60888-26.4353-3.77661-33.98816C2194.858,213.51172,2196.74615,167.25,2196.74615,167.25ZM2029.16534,296.594c-14.16162-10.38525-12.27344-8.49707-16.99414-11.32934-4.72046-2.83228-4.72046-2.83228-9.44117-7.553-4.72045-4.72058-2.83227-7.553,13.21778-7.553,9.44116,0,15.10583.94422,19.82641,15.106S2043.3272,306.97937,2029.16534,296.594ZM2139.627,277.71167c-4.72046,4.7207-4.72046,4.7207-9.44092,7.553-4.7207,2.83227-2.83252.94409-16.99414,11.32934-14.16187,10.38538-11.32959,2.8324-6.60889-11.32934,4.72046-14.16174,10.38526-15.106,19.82642-15.106C2142.45953,270.15869,2144.34771,272.99109,2139.627,277.71167Z"/><path class="590b4e63-6a93-4263-8569-bc2684d8fcdd" d="M2071.65067,393.83816s18.88235-.94412,19.82647,12.27353-14.16176,17.93823-18.88235,17.93823-20.77058-3.77647-20.77058-16.05S2067.8742,393.83816,2071.65067,393.83816Z"/><rect class="40834fff-b9c1-4462-ba35-7af0cdae641b" x="6603.33013" width="2036" height="1085"/></svg>