<svg xmlns="http://www.w3.org/2000/svg" viewBox="0 0 14787.5 1080"><defs><style>.\39 e347341-e99a-4672-99ed-5f548fe403a1{fill:#914d03;}.\32 e002e6e-04fd-4824-9a98-4d46882e8add{fill:#2d2d2d;}.\35 a8bb4a7-6eee-43a8-9189-b9c396160224{fill:#777;}.ddf34dc1-d81e-403e-b3d1-3efb5a662772{fill:#e2a100;}.\32 f595626-4da2-445d-ba3a-7152980d4086{fill:#a35a0a;}</style></defs><title>Marche2</title><g id="2e75b385-03a6-4b6b-8371-10b82dabe7a5" data-name="sol"><rect class="9e347341-e99a-4672-99ed-5f548fe403a1" x="-1" y="796" width="14788" height="284"/><path class="2e002e6e-04fd-4824-9a98-4d46882e8add" d="M5987.416,752.44995a3.35649,3.35649,0,0,1-.64551-.06177A3.38439,3.38439,0,0,0,5987.416,752.44995Z"/><path class="2e002e6e-04fd-4824-9a98-4d46882e8add" d="M5985.5957,750.93872a2.46694,2.46694,0,0,1,.1377-.55884A2.46694,2.46694,0,0,0,5985.5957,750.93872Z"/><path class="2e002e6e-04fd-4824-9a98-4d46882e8add" d="M5986.68457,752.37256a1.89093,1.89093,0,0,1-.47461-.17285A1.89093,1.89093,0,0,0,5986.68457,752.37256Z"/><path class="2e002e6e-04fd-4824-9a98-4d46882e8add" d="M5986.07129,800.62329q.89063-.60974,1.81543-1.17334C5987.27148,799.82251,5986.666,800.21533,5986.07129,800.62329Z"/><path class="2e002e6e-04fd-4824-9a98-4d46882e8add" d="M5986.15137,752.16577a1.18923,1.18923,0,0,1-.335-.28491A1.20723,1.20723,0,0,0,5986.15137,752.16577Z"/><path class="2e002e6e-04fd-4824-9a98-4d46882e8add" d="M5985.80762,751.86816a1.24111,1.24111,0,0,1-.21485-.89062A1.23588,1.23588,0,0,0,5985.80762,751.86816Z"/><path class="2e002e6e-04fd-4824-9a98-4d46882e8add" d="M5984.27637,801.939c.38379-.30175.78515-.58715,1.18554-.87377C5985.06152,801.35205,5984.66211,801.63867,5984.27637,801.939Z"/><path class="2e002e6e-04fd-4824-9a98-4d46882e8add" d="M5986.13379,749.59039c-.03174.05194-.06885.10511-.09766.15607C5986.06494,749.69568,5986.10254,749.64209,5986.13379,749.59039Z"/><path class="2e002e6e-04fd-4824-9a98-4d46882e8add" d="M5986.4917,749.06366c-.13525.18048-.25342.35559-.35791.52673C5986.23926,749.41913,5986.35547,749.24426,5986.4917,749.06366Z"/><path class="2e002e6e-04fd-4824-9a98-4d46882e8add" d="M5986.4917,749.06366c.01611-.021.03369-.04254.0498-.06366h-.00634C5986.51807,749.022,5986.5083,749.04181,5986.4917,749.06366Z"/><path class="2e002e6e-04fd-4824-9a98-4d46882e8add" d="M5986.03613,749.74646a4.29484,4.29484,0,0,0-.293.60754A4.28914,4.28914,0,0,1,5986.03613,749.74646Z"/><path class="2e002e6e-04fd-4824-9a98-4d46882e8add" d="M7331.19385,715H6071.69922a35.68858,35.68858,0,0,0-7.28516,5.5c-3.71289,3.71-4.79394,6.93994-3.2334,8.5h-36.79687c-2.62207,0-6.06445,1.07007-9.50684,2.79a37.56027,37.56027,0,0,0-9.50781,6.71,15.05,15.05,0,0,0-3.5918,5.05005H5996.332a10.75747,10.75747,0,0,0-4.45312,1.30981A17.41973,17.41973,0,0,0,5987.416,748a9.90968,9.90968,0,0,0-.87452,1H14787V715Z"/><path class="5a8bb4a7-6eee-43a8-9189-b9c396160224" d="M5985.81641,751.88086l-.00879-.0127Z"/><path class="5a8bb4a7-6eee-43a8-9189-b9c396160224" d="M5985.46191,801.06519c.20411-.14624.40137-.29956.60938-.4419C5985.86328,800.76563,5985.666,800.919,5985.46191,801.06519Z"/><path class="5a8bb4a7-6eee-43a8-9189-b9c396160224" d="M5984.19336,802h.00781c.02637-.02.04981-.04126.0752-.061C5984.25,801.96,5984.21973,801.97876,5984.19336,802Z"/><path class="5a8bb4a7-6eee-43a8-9189-b9c396160224" d="M5985.7334,750.37988l.00976-.02588Z"/><path class="5a8bb4a7-6eee-43a8-9189-b9c396160224" d="M5985.59277,750.97754l.00293-.03882Z"/><path class="5a8bb4a7-6eee-43a8-9189-b9c396160224" d="M5986.21,752.19971c-.02051-.01075-.03906-.02246-.05859-.03394C5986.1709,752.17725,5986.18945,752.189,5986.21,752.19971Z"/><path class="5a8bb4a7-6eee-43a8-9189-b9c396160224" d="M5986.77051,752.38818c-.02832-.00537-.0586-.00927-.08594-.01562C5986.71191,752.37891,5986.74219,752.38257,5986.77051,752.38818Z"/><polygon class="5a8bb4a7-6eee-43a8-9189-b9c396160224" points="6492.736 802 6545.775 749 6545.775 749 6492.736 802 6492.736 802"/><rect class="5a8bb4a7-6eee-43a8-9189-b9c396160224" x="6094.43652" y="749" width="0.5" height="53"/><path class="5a8bb4a7-6eee-43a8-9189-b9c396160224" d="M5985.74316,750.354l-.00976.02588a2.46694,2.46694,0,0,0-.1377.55884l-.00293.03882a1.24111,1.24111,0,0,0,.21485.89062l.00879.0127a1.18923,1.18923,0,0,0,.335.28491c.01953.01148.03808.02319.05859.03394a1.89093,1.89093,0,0,0,.47461.17285c.02734.00635.05762.01025.08594.01562a3.35649,3.35649,0,0,0,.64551.06177h48.53613a32.39666,32.39666,0,0,0-3.5625,3.05005c-3.71289,3.71-4.794,6.93994-3.23242,8.5h-88.83692c-3.85254,0-8.92676,1.58008-14.01074,4.10986-1.46875.73438-2.93457,1.55664-4.37305,2.43653H5892.252c-2.45117,0-6.46289,2.00415-8.91406,4.45361s-2.45117,4.45361,0,4.45361h27.584C5904.627,786.47705,5905.085,792,5912.2998,792h44.27344a17.48384,17.48384,0,0,0-4.18457,3c-2.45019,2.44995-2.45019,4.44995,0,4.44995h35.49805q-.92286.56141-1.81543,1.17334c-.208.14234-.40527.29566-.60938.4419-.40039.28662-.80175.572-1.18554.87377-.02539.01978-.04883.041-.0752.061h110.23535V749H5986.53516A5.326,5.326,0,0,0,5985.74316,750.354Z"/><polygon class="5a8bb4a7-6eee-43a8-9189-b9c396160224" points="7244.437 749 6094.937 749 6094.937 802 7109.204 802 14787 802 14787 749 7244.437 749"/><path class="ddf34dc1-d81e-403e-b3d1-3efb5a662772" d="M6071.69922,715h-492.875c16.208-24.41064,10.7373-42-16.46289-42H4253.72656c-27.19922,0-67.876,17.58936-100.52539,42H3134.98633c16.209-24.41064,10.73828-42-16.46289-42H1809.88965c-27.2002,0-67.876,17.58936-100.52637,42H715.16748c16.2085-24.41064,10.73731-42-16.46289-42H0V889H482.542c31.48487,0,81.02539-23.5625,115.26953-54h988.72754c-26.67578,30.4375-24.29687,54,7.1875,54H2902.36133c31.48437,0,81.02539-23.5625,115.26953-54H4030.377c-26.67675,30.4375-24.29687,54,7.1875,54H5346.19922c31.48437,0,81.02441-23.5625,115.26855-54h450.05078c-.0498-2.55005,1.87208-6.09009,5.78418-10a55.40914,55.40914,0,0,1,14.01075-9.89014c5.084-2.52978,10.1582-4.10986,14.01074-4.10986h32.11426c.10058-1.69995,1.3916-3.98,3.91308-6.5a31.71914,31.71914,0,0,1,2.84961-2.5h-.00781c.02637-.02124.05664-.04.083-.061.38574-.30029.78515-.58691,1.18554-.87377.20411-.14624.40137-.29956.60938-.4419.59473-.408,1.20019-.80078,1.81543-1.17334h-35.49805c-2.45019,0-2.45019-2,0-4.44995a17.48384,17.48384,0,0,1,4.18457-3H5912.2998c-7.21484,0-7.67285-5.523-1.37792-12.54639h-27.584c-2.45117,0-2.45117-2.00415,0-4.45361s6.46289-4.45361,8.91406-4.45361h29.68457c1.43848-.87989,2.9043-1.70215,4.37305-2.43653,5.084-2.52978,10.1582-4.10986,14.01074-4.10986h88.83692c-1.56153-1.56006-.48047-4.79,3.23242-8.5a32.39666,32.39666,0,0,1,3.5625-3.05005H5987.416a3.38439,3.38439,0,0,1-.64551-.06177c-.02832-.00561-.0586-.00927-.08594-.01562a1.89093,1.89093,0,0,1-.47461-.17285c-.02051-.01075-.03906-.02246-.05859-.03394a1.20723,1.20723,0,0,1-.335-.28491l-.00879-.0127a1.23588,1.23588,0,0,1-.21485-.89062l.00293-.03882a2.46694,2.46694,0,0,1,.1377-.55884l.00976-.02588A7.02779,7.02779,0,0,1,5987.416,748a17.41973,17.41973,0,0,1,4.46289-3.14014,10.75747,10.75747,0,0,1,4.45312-1.30981h5.44531a15.05,15.05,0,0,1,3.5918-5.05005,37.56027,37.56027,0,0,1,9.50781-6.71c3.44239-1.72,6.88477-2.79,9.50684-2.79h36.79687c-1.56054-1.56006-.47949-4.79,3.2334-8.5A35.68858,35.68858,0,0,1,6071.69922,715ZM308.50342,848c-2.45117,2.44946-6.4624,4.45361-8.91406,4.45361H189.05664c-2.45117,0-2.45117-2.00415,0-4.45361s6.4624-4.45361,8.91406-4.45361H308.50342C310.95459,843.54639,310.95459,845.55054,308.50342,848Zm137.686-144c3.30274-3.30005,8.70655-6,12.00928-6H682.36719c3.30273,0,3.30273,2.69995,0,6s-8.70655,6-12.00879,6H446.18945C442.88721,710,442.88721,707.30005,446.18945,704ZM160.688,714.64038H271.2207A2.28674,2.28674,0,0,1,272.6084,715c.90625.68262.44433,2.26367-1.3877,4.094-2.45117,2.44947-6.4624,4.45362-8.91357,4.45362H151.77441c-2.45166,0-2.45166-2.00415,0-4.45362A17.58362,17.58362,0,0,1,158.58252,715,7.53093,7.53093,0,0,1,160.688,714.64038ZM2629.832,704.5c5.22852-5.2251,13.78516-9.5,19.01367-9.5h91.06836c5.22852,0,5.22852,4.2749,0,9.5s-13.78515,9.5-19.01367,9.5H2629.832C2624.60254,714,2624.60254,709.7251,2629.832,704.5ZM2885.44141,728c-2.45118,2.44946-6.46289,4.45361-8.91407,4.45361h-110.5332c-2.45117,0-2.45117-2.00415,0-4.45361s6.46289-4.45361,8.91406-4.45361h110.53321C2887.89258,723.54639,2887.89258,725.55054,2885.44141,728Zm-601.87012,31c-2.20215,2.19995-5.80469,4-8.00684,4H2233.5332c-2.20117,0-2.20117-1.80005,0-4,2.20215-2.19995,5.80469-4,8.00586-4h42.03223C2285.77344,755,2285.77344,756.80005,2283.57129,759ZM2076.416,710.5c5.22851-5.2251,13.78515-9.5,19.01367-9.5h91.06836c5.22851,0,5.22851,4.2749,0,9.5a34.95157,34.95157,0,0,1-5.64649,4.5c-4.584,2.9707-9.76562,5-13.36718,5H2076.416c-3.60352,0-4.72266-2.0293-3.36133-5A16.33509,16.33509,0,0,1,2076.416,710.5Zm-249.47461,4.14038h110.53222a2.28776,2.28776,0,0,1,1.3877.35962c.90625.68262.44433,2.26367-1.3877,4.094-2.45117,2.44947-6.46191,4.45362-8.91406,4.45362H1818.02734c-2.45117,0-2.45117-2.00415,0-4.45362a17.57828,17.57828,0,0,1,6.8086-4.094A7.528,7.528,0,0,1,1826.94141,714.64038Zm-12.30567,106.906c2.45117,0,2.45117,2.00415,0,4.45361s-6.46191,4.45361-8.91406,4.45361H1695.18945c-2.45117,0-2.45117-2.00415,0-4.45361s6.46192-4.45361,8.91407-4.45361ZM1978.3418,851.5c-5.22852,5.2251-13.78516,9.5-19.01465,9.5h-91.06836c-5.22949,0-5.22949-4.2749,0-9.5s13.78516-9.5,19.01465-9.5h91.06836C1983.57031,842,1983.57031,846.2749,1978.3418,851.5Zm956.71875-9.5c-7.70508,7.69995-20.31446,14-28.02051,14h-354.2666c-7.70508,0-7.70508-6.30005,0-14a52.0568,52.0568,0,0,1,8.91015-7c6.60938-4.17261,13.95508-7,19.11133-7h354.26563c5.15625,0,6.84375,2.82739,5.10058,7A23.04088,23.04088,0,0,1,2935.06055,842Zm44.0332-123c-2.20117,0-2.20117-1.80005,0-4,2.20215-2.19995,5.80469-4,8.00586-4h42.03223c2.20214,0,2.20214,1.80005,0,4s-5.80469,4-8.00684,4ZM5369.8916,732.5c-5.22851,5.2251-13.78515,9.5-19.01465,9.5h-91.06836c-5.22851,0-5.22851-4.2749,0-9.5,5.2295-5.2251,13.78516-9.5,19.01465-9.5h91.06836C5375.12109,723,5375.12109,727.2749,5369.8916,732.5Zm-318.23926,89c-5.22851,5.2251-13.78515,9.5-19.01464,9.5h-91.06836c-5.22852,0-5.22852-4.2749,0-9.5,5.22949-5.2251,13.78613-9.5,19.01464-9.5h91.06836C5056.88086,812,5056.88086,816.2749,5051.65234,821.5ZM4886.49609,710.54639h110.53223c2.45117,0,2.45117,2.00415,0,4.45361s-6.46191,4.45361-8.91406,4.45361H4877.582c-2.45117,0-2.45117-2.00415,0-4.45361S4884.044,710.54639,4886.49609,710.54639ZM4565.28711,714c2.20117-2.19995,5.80371-4,8.00586-4h42.03125c2.20215,0,2.20215,1.80005,0,4a13.34446,13.34446,0,0,1-1.14356,1c-2.168,1.71729-5.00781,3-6.8623,3h-42.03125c-1.85449,0-2.12695-1.28271-.8584-3A8.70089,8.70089,0,0,1,4565.28711,714Zm-312.23535-8.5c5.22949-5.2251,13.78613-9.5,19.01465-9.5h91.06836c5.22851,0,5.22851,4.2749,0,9.5s-13.78516,9.5-19.01368,9.5h-91.06933C4247.82324,715,4247.82324,710.7251,4253.05176,705.5Zm55.459,143.5c-2.45117,2.44946-6.46191,4.45361-8.91308,4.45361H4189.06445c-2.45117,0-2.45117-2.00415,0-4.45361s6.46289-4.45361,8.91407-4.45361h110.53222C4310.96289,844.54639,4310.96289,846.55054,4308.51074,849Zm508.96582,0H4463.21c-7.706,0-7.706-6.30005,0-14s20.31543-14,28.02051-14h354.2666c7.70606,0,7.70606,6.30005,0,14C4837.792,842.7,4825.18164,849,4817.47656,849Z"/><path class="2f595626-4da2-445d-ba3a-7152980d4086" d="M446.18945,710H670.3584c3.30224,0,8.70605-2.69995,12.00879-6s3.30273-6,0-6H458.19873c-3.30273,0-8.70654,2.69995-12.00928,6C442.88721,707.30005,442.88721,710,446.18945,710Z"/><path class="2f595626-4da2-445d-ba3a-7152980d4086" d="M189.05664,852.45361H299.58936c2.45166,0,6.46289-2.00415,8.91406-4.45361s2.45117-4.45361,0-4.45361H197.9707c-2.45166,0-6.46289,2.00415-8.91406,4.45361S186.60547,852.45361,189.05664,852.45361Z"/><path class="2f595626-4da2-445d-ba3a-7152980d4086" d="M2885.44141,723.54639H2774.9082c-2.45117,0-6.46289,2.00415-8.91406,4.45361s-2.45117,4.45361,0,4.45361h110.5332c2.45118,0,6.46289-2.00415,8.91407-4.45361S2887.89258,723.54639,2885.44141,723.54639Z"/><path class="2f595626-4da2-445d-ba3a-7152980d4086" d="M4308.51074,844.54639H4197.97852c-2.45118,0-6.46289,2.00415-8.91407,4.45361s-2.45117,4.45361,0,4.45361h110.53321c2.45117,0,6.46191-2.00415,8.91308-4.45361C4310.96289,846.55054,4310.96289,844.54639,4308.51074,844.54639Z"/><path class="2f595626-4da2-445d-ba3a-7152980d4086" d="M1814.63574,821.54639H1704.10352c-2.45215,0-6.46289,2.00415-8.91407,4.45361s-2.45117,4.45361,0,4.45361h110.53223c2.45215,0,6.46289-2.00415,8.91406-4.45361S1817.08691,821.54639,1814.63574,821.54639Z"/><path class="2f595626-4da2-445d-ba3a-7152980d4086" d="M4997.02832,710.54639H4886.49609c-2.45214,0-6.46289,2.00415-8.91406,4.45361s-2.45117,4.45361,0,4.45361h110.53223c2.45215,0,6.46289-2.00415,8.91406-4.45361S4999.47949,710.54639,4997.02832,710.54639Z"/><path class="2f595626-4da2-445d-ba3a-7152980d4086" d="M160.688,714.64038A7.53093,7.53093,0,0,0,158.58252,715H272.6084a2.28674,2.28674,0,0,0-1.3877-.35962Z"/><path class="2f595626-4da2-445d-ba3a-7152980d4086" d="M151.77441,719.094c-2.45166,2.44947-2.45166,4.45362,0,4.45362H262.30713c2.45117,0,6.4624-2.00415,8.91357-4.45362,1.832-1.83032,2.29395-3.41137,1.3877-4.094H158.58252A17.58362,17.58362,0,0,0,151.77441,719.094Z"/><path class="2f595626-4da2-445d-ba3a-7152980d4086" d="M1826.94141,714.64038a7.528,7.528,0,0,0-2.10547.35962h114.02539a2.28776,2.28776,0,0,0-1.3877-.35962Z"/><path class="2f595626-4da2-445d-ba3a-7152980d4086" d="M1818.02734,719.094c-2.45117,2.44947-2.45117,4.45362,0,4.45362h110.53223c2.45215,0,6.46289-2.00415,8.91406-4.45362,1.832-1.83032,2.29395-3.41137,1.3877-4.094H1824.83594A17.57828,17.57828,0,0,0,1818.02734,719.094Z"/><path class="2f595626-4da2-445d-ba3a-7152980d4086" d="M2935.06055,828H2580.79492c-5.15625,0-12.50195,2.82739-19.11133,7a52.0568,52.0568,0,0,0-8.91015,7c-7.70508,7.69995-7.70508,14,0,14H2907.04c7.70605,0,20.31543-6.30005,28.02051-14a23.04088,23.04088,0,0,0,5.10058-7C2941.9043,830.82739,2940.2168,828,2935.06055,828Z"/><path class="2f595626-4da2-445d-ba3a-7152980d4086" d="M4845.49707,821h-354.2666c-7.70508,0-20.31445,6.30005-28.02051,14s-7.706,14,0,14h354.2666c7.70508,0,20.31543-6.30005,28.02051-14C4853.20313,827.30005,4853.20313,821,4845.49707,821Z"/><path class="2f595626-4da2-445d-ba3a-7152980d4086" d="M4363.13477,696h-91.06836c-5.22852,0-13.78516,4.2749-19.01465,9.5-5.22852,5.2251-5.22852,9.5,0,9.5h91.06933c5.22852,0,13.78516-4.2749,19.01368-9.5S4368.36328,696,4363.13477,696Z"/><path class="2f595626-4da2-445d-ba3a-7152980d4086" d="M2629.832,714h91.06836c5.22852,0,13.78516-4.2749,19.01367-9.5s5.22852-9.5,0-9.5H2648.8457c-5.22851,0-13.78515,4.2749-19.01367,9.5C2624.60254,709.7251,2624.60254,714,2629.832,714Z"/><path class="2f595626-4da2-445d-ba3a-7152980d4086" d="M1978.3418,842h-91.06836c-5.22949,0-13.78516,4.2749-19.01465,9.5s-5.22949,9.5,0,9.5h91.06836c5.22949,0,13.78613-4.2749,19.01465-9.5S1983.57031,842,1978.3418,842Z"/><path class="2f595626-4da2-445d-ba3a-7152980d4086" d="M5051.65234,812H4960.584c-5.22851,0-13.78515,4.2749-19.01464,9.5-5.22852,5.2251-5.22852,9.5,0,9.5h91.06836c5.22949,0,13.78613-4.2749,19.01464-9.5S5056.88086,812,5051.65234,812Z"/><path class="2f595626-4da2-445d-ba3a-7152980d4086" d="M5369.8916,723h-91.06836c-5.22949,0-13.78515,4.2749-19.01465,9.5-5.22851,5.2251-5.22851,9.5,0,9.5H5350.877c5.2295,0,13.78614-4.2749,19.01465-9.5C5375.12109,727.2749,5375.12109,723,5369.8916,723Z"/><path class="2f595626-4da2-445d-ba3a-7152980d4086" d="M2186.49805,701h-91.06836c-5.22852,0-13.78516,4.2749-19.01367,9.5a16.33509,16.33509,0,0,0-3.36133,4.5c-1.36133,2.9707-.24219,5,3.36133,5h91.06836c3.60156,0,8.7832-2.0293,13.36718-5a34.95157,34.95157,0,0,0,5.64649-4.5C2191.72656,705.2749,2191.72656,701,2186.49805,701Z"/><path class="2f595626-4da2-445d-ba3a-7152980d4086" d="M3029.13184,711h-42.03223c-2.20117,0-5.80371,1.80005-8.00586,4-2.20117,2.19995-2.20117,4,0,4H3021.125c2.20215,0,5.80469-1.80005,8.00684-4S3031.334,711,3029.13184,711Z"/><path class="2f595626-4da2-445d-ba3a-7152980d4086" d="M2283.57129,755h-42.03223c-2.20117,0-5.80371,1.80005-8.00586,4-2.20117,2.19995-2.20117,4,0,4h42.03125c2.20215,0,5.80469-1.80005,8.00684-4S2285.77344,755,2283.57129,755Z"/><path class="2f595626-4da2-445d-ba3a-7152980d4086" d="M4615.32422,710H4573.293c-2.20215,0-5.80469,1.80005-8.00586,4a8.70089,8.70089,0,0,0-.8584,1c-1.26855,1.71729-.99609,3,.8584,3h42.03125c1.85449,0,4.69434-1.28271,6.8623-3a13.34446,13.34446,0,0,0,1.14356-1C4617.52637,711.80005,4617.52637,710,4615.32422,710Z"/><path class="2e002e6e-04fd-4824-9a98-4d46882e8add" d="M7109.20361,802H5984.20117a31.71914,31.71914,0,0,0-2.84961,2.5c-2.52148,2.52-3.8125,4.80005-3.91308,6.5h-32.11426c-3.85254,0-8.92676,1.58008-14.01074,4.10986A55.40914,55.40914,0,0,0,5917.30273,825c-3.9121,3.90991-5.834,7.44995-5.78418,10H14787V802Z"/></g></svg>