<svg xmlns="http://www.w3.org/2000/svg" viewBox="0 0 13300 1080"><defs><style>.\33 1898dfb-7de7-480c-b122-7d004bbf8c85{fill:#914d03;}.\34 d0fed84-d9fa-4d1a-8b80-673865a72dfe{fill:#e2a100;}.\36 1dcbb17-0e61-4a24-9cf7-e0a45863dce3{fill:#a35a0a;}</style></defs><title>Marche1</title><g id="04b32136-26cb-4f23-b7c7-cad27b4ce76a" data-name="sol"><rect class="31898dfb-7de7-480c-b122-7d004bbf8c85" y="787" width="13300" height="293"/><path class="4d0fed84-d9fa-4d1a-8b80-673865a72dfe" d="M9374.82422,715c16.208-24.41064,10.7373-42-16.46289-42H8049.72705c-27.19971,0-67.87646,17.58936-100.52588,42H6930.98682c16.20849-24.41064,10.7373-42-16.46289-42H5605.88965c-27.2002,0-67.87647,17.58936-100.52588,42H4511.16748c16.2085-24.41064,10.73731-42-16.46289-42H3186.07031c-27.20019,0-67.87646,17.58936-100.52588,42h-943.158c16.20826-24.41064,10.73731-42-16.46289-42H817.28931c-27.20014,0-67.87641,17.58936-100.52607,42H0V835H593.939c-26.67645,30.4375-24.29693,54,7.18781,54H1909.76111c31.48474,0,81.025-23.5625,115.26916-54H2962.72c-26.67651,30.4375-24.29687,54,7.18774,54H4278.542c31.48487,0,81.02539-23.5625,115.26953-54h988.728c-26.67676,30.4375-24.29736,54,7.1875,54H6698.36133c31.48486,0,81.02539-23.5625,115.26953-54H7826.377c-26.67675,30.4375-24.29687,54,7.1875,54H9142.19922c31.48437,0,81.02441-23.5625,115.26855-54H9505V715ZM1994.49963,700.5c5.22889-5.2251,13.78528-9.5,19.01429-9.5h91.0686c5.22876,0,5.22876,4.2749,0,9.5-5.229,5.2251-13.7854,9.5-19.0144,9.5h-91.06849C1989.27075,710,1989.27075,705.7251,1994.49963,700.5Zm-399.4945-6.406c2.45141-2.44946,6.46264-4.45361,8.91394-4.45361H1714.4519c2.45142,0,2.45142,2.00415,0,4.45361s-6.46264,4.45362-8.91381,4.45362h-110.533C1592.55371,698.54761,1592.55371,696.54346,1595.00513,694.094ZM1365.02637,710c2.20166-2.19995,5.80432-4,8.006-4H1415.064c2.20167,0,2.20167,1.80005,0,4s-5.80444,4-8.0061,4h-42.03149C1362.82471,714,1362.82471,712.19995,1365.02637,710Zm-539.40564-9.5h.00006c5.22894-5.2251,13.78534-9.5,19.01428-9.5h91.06848c5.229,0,5.229,4.2749,0,9.5s-13.7854,9.5-19.01428,9.5H825.62073C820.39185,710,820.39185,705.7251,825.62073,700.5Zm267.91467,10.14038h110.53272c2.41967,0,2.44628,1.95337.08935,4.35962-.031.03149-.05762.06226-.08935.094-2.45118,2.44947-6.46253,4.45362-8.91382,4.45362h-110.533c-2.4513,0-2.4513-2.00415,0-4.45362.03222-.03222.07092-.062.10364-.094C1087.184,712.59448,1091.11621,710.64038,1093.5354,710.64038ZM1029.77429,854h-.00012c-7.70569,7.69995-20.31519,14-28.02094,14H647.48682c-7.70581,0-7.70581-6.30005,0-14s20.3153-14,28.02105-14h354.26642C1037.48,840,1037.48,846.30005,1029.77429,854Zm528.56018,12.094c-2.45117,2.44947-6.46252,4.45362-8.91382,4.45362h-110.533c-2.4513,0-2.4513-2.00415,0-4.45362s6.46264-4.45361,8.91406-4.45361h110.53271C1560.78589,861.64038,1560.78589,863.64453,1558.33447,866.094ZM1905.43262,854c-3.30249,3.30005-8.70655,6-12.009,6H1669.25513c-3.30249,0-3.30249-2.69995,0-6s8.70654-6,12.009-6h224.16846C1908.73511,848,1908.73511,850.7,1905.43262,854ZM1271.9563,840h-91.06836c-3.6023,0-4.72168-2.0293-3.3606-5a16.32081,16.32081,0,0,1,3.3606-4.5c5.22888-5.2251,13.78528-9.5,19.01416-9.5h91.0686c5.22888,0,5.22888,4.2749,0,9.5a34.93854,34.93854,0,0,1-5.64624,4.5C1280.73962,837.9707,1275.55859,840,1271.9563,840ZM4242.18945,704c3.30274-3.30005,8.70655-6,12.00928-6h224.16846c3.30273,0,3.30273,2.69995,0,6s-8.70655,6-12.00879,6h-224.169C4238.88721,710,4238.88721,707.30005,4242.18945,704ZM3956.688,714.64038h110.533a2.28823,2.28823,0,0,1,1.38769.35962c.90576.68262.44409,2.26367-1.38769,4.094-2.45142,2.44947-6.46265,4.45362-8.91382,4.45362h-110.533c-2.45142,0-2.45142-2.00415,0-4.45362a17.58621,17.58621,0,0,1,6.80835-4.094A7.52946,7.52946,0,0,1,3956.688,714.64038ZM3175.38745,714c7.70581-7.69995,20.31519-14,28.02124-14h354.26636c7.70581,0,7.70581,6.30005,0,14h-.00025c-.33764.3374-.6958.66846-1.05175,1-7.761,7.23633-19.60108,13-26.96924,13H3175.38745c-7.36792,0-7.67212-5.76367-.94971-13C3174.74585,714.66846,3175.0498,714.3374,3175.38745,714Zm-7.843,121.094c-2.45117,2.44947-6.4624,4.45362-8.91381,4.45362h-110.533c-2.45118,0-2.45118-2.00415,0-4.45362.03222-.03222.0708-.062.10351-.094,2.459-2.40552,6.39136-4.35962,8.81055-4.35962h110.53271c2.41968,0,2.44629,1.95337.08936,4.35962C3167.60278,835.03149,3167.57617,835.06226,3167.54443,835.094ZM3221.42212,862c-2.20166,2.19995-5.80444,4-8.0061,4h-42.0315c-2.20166,0-2.20166-1.80005,0-4s5.80444-4,8.00611-4h42.03149C3223.62378,858,3223.62378,859.80005,3221.42212,862Zm200.15063-1.5c-5.229,5.2251-13.78564,9.5-19.0144,9.5h-91.0686c-5.22876,0-5.22876-4.2749,0-9.5,5.229-5.2251,13.7854-9.5,19.0144-9.5h91.0686C3426.80151,851,3426.80151,855.2749,3421.57275,860.5ZM4104.50342,848c-2.45117,2.44946-6.4624,4.45361-8.91406,4.45361H3985.05664c-2.45142,0-2.45142-2.00415,0-4.45361,2.45117-2.44946,6.4624-4.45361,8.91382-4.45361h110.533C4106.95459,843.54639,4106.95459,845.55054,4104.50342,848Zm-333.66821-12.5c-5.229,5.2251-13.78541,9.5-19.01441,9.5h-91.06836c-5.229,0-5.229-4.2749,0-9.5.16895-.1687.35034-.3335.52588-.5,5.26123-4.99365,13.42822-9,18.48828-9h91.06861c5.06,0,5.20825,4.00635.47485,9C3771.1521,835.1665,3771.00415,835.3313,3770.83521,835.5Zm2654.99633-131c5.229-5.2251,13.78516-9.5,19.01416-9.5h91.06836c5.229,0,5.229,4.2749,0,9.5-5.22851,5.2251-13.78515,9.5-19.01416,9.5h-91.06836C6420.60254,714,6420.60254,709.7251,6425.83154,704.5ZM6681.44092,728c-2.45117,2.44946-6.4624,4.45361-8.91406,4.45361H6561.99414c-2.45117,0-2.45117-2.00415,0-4.45361s6.4624-4.45361,8.91406-4.45361h110.53272C6683.89209,723.54639,6683.89209,725.55054,6681.44092,728Zm-601.86963,31c-2.20166,2.19995-5.80469,4-8.00635,4h-42.03125c-2.20166,0-2.20166-1.80005,0-4s5.8042-4,8.00586-4h42.03174C6081.77295,755,6081.77295,756.80005,6079.57129,759Zm-207.15576-48.5c5.229-5.2251,13.78515-9.5,19.01416-9.5h91.06836c5.229,0,5.229,4.2749,0,9.5a34.92647,34.92647,0,0,1-5.646,4.5c-4.585,2.9707-9.76611,5-13.36816,5h-91.06836c-3.60254,0-4.72168-2.0293-3.36084-5A16.322,16.322,0,0,1,5872.41553,710.5Zm-249.47461,4.14038h110.53271a2.28776,2.28776,0,0,1,1.3877.35962c.90576.68262.44433,2.26367-1.3877,4.094-2.45117,2.44947-6.4624,4.45362-8.91406,4.45362H5614.02686c-2.45118,0-2.45118-2.00415,0-4.45362a17.58525,17.58525,0,0,1,6.80859-4.094A7.528,7.528,0,0,1,5622.94092,714.64038Zm-12.30518,106.906c2.45117,0,2.45117,2.00415,0,4.45361s-6.4624,4.45361-8.91406,4.45361H5491.189c-2.45117,0-2.45117-2.00415,0-4.45361s6.46241-4.45361,8.91407-4.45361ZM5774.3418,851.5c-5.229,5.2251-13.78565,9.5-19.01465,9.5h-91.06836c-5.229,0-5.229-4.2749,0-9.5s13.78516-9.5,19.01416-9.5h91.06885C5779.57031,842,5779.57031,846.2749,5774.3418,851.5ZM6731.061,842c-7.70606,7.69995-20.31543,14-28.021,14h-354.2666c-7.70557,0-7.70557-6.30005,0-14a52.02271,52.02271,0,0,1,8.91064-7c6.6084-4.17261,13.95508-7,19.11035-7H6731.061c5.15527,0,6.84277,2.82739,5.10009,7A23.04647,23.04647,0,0,1,6731.061,842Zm44.0332-123c-2.20166,0-2.20166-1.80005,0-4s5.8042-4,8.00586-4h42.03174c2.20166,0,2.20166,1.80005,0,4s-5.80469,4-8.00635,4ZM9165.8916,732.5c-5.22851,5.2251-13.78515,9.5-19.01465,9.5h-91.06836c-5.22851,0-5.22851-4.2749,0-9.5,5.2295-5.2251,13.78516-9.5,19.01465-9.5h91.06836C9171.12109,723,9171.12109,727.2749,9165.8916,732.5Zm-318.23926,89c-5.22851,5.2251-13.78515,9.5-19.01464,9.5h-91.06836c-5.22852,0-5.22852-4.2749,0-9.5,5.22949-5.2251,13.78613-9.5,19.01464-9.5h91.06836C8852.88086,812,8852.88086,816.2749,8847.65234,821.5ZM8682.49609,710.54639h110.53223c2.45117,0,2.45117,2.00415,0,4.45361s-6.46191,4.45361-8.91406,4.45361H8673.582c-2.45117,0-2.45117-2.00415,0-4.45361S8680.044,710.54639,8682.49609,710.54639ZM8361.28711,714c2.20117-2.19995,5.80371-4,8.00586-4h42.03125c2.20215,0,2.20215,1.80005,0,4a13.34446,13.34446,0,0,1-1.14356,1c-2.168,1.71729-5.00781,3-6.8623,3h-42.03125c-1.85449,0-2.12695-1.28271-.8584-3A8.70089,8.70089,0,0,1,8361.28711,714Zm-312.23535-8.5c5.229-5.2251,13.78564-9.5,19.01465-9.5h91.06836c5.229,0,5.229,4.2749,0,9.5s-13.78565,9.5-19.01416,9.5h-91.06885C8043.82324,715,8043.82324,710.7251,8049.05176,705.5Zm55.459,143.5c-2.45117,2.44946-6.4624,4.45361-8.91357,4.45361H7985.064c-2.45117,0-2.45117-2.00415,0-4.45361,2.45167-2.44946,6.4629-4.45361,8.91407-4.45361h110.53271C8106.9624,844.54639,8106.9624,846.55054,8104.51074,849Zm508.96582,0H8259.21c-7.70605,0-7.70605-6.30005,0-14s20.31543-14,28.02051-14h354.2666c7.70606,0,7.70606,6.30005,0,14C8633.792,842.7,8621.18164,849,8613.47656,849Z"/><path class="61dcbb17-0e61-4a24-9cf7-e0a45863dce3" d="M1669.25513,860h224.16845c3.30249,0,8.70655-2.69995,12.009-6s3.30249-6,0-6H1681.26416c-3.30249,0-8.70654,2.69995-12.009,6S1665.95264,860,1669.25513,860Z"/><path class="61dcbb17-0e61-4a24-9cf7-e0a45863dce3" d="M4242.18945,710h224.169c3.30224,0,8.706-2.69995,12.00879-6s3.30273-6,0-6H4254.19873c-3.30273,0-8.70654,2.69995-12.00928,6C4238.88721,707.30005,4238.88721,710,4242.18945,710Z"/><path class="61dcbb17-0e61-4a24-9cf7-e0a45863dce3" d="M1438.8877,870.54761h110.533c2.4513,0,6.46265-2.00415,8.91382-4.45362,2.45142-2.44946,2.45142-4.45361,0-4.45361H1447.80176c-2.45142,0-6.46265,2.00415-8.91406,4.45361S1436.4364,870.54761,1438.8877,870.54761Z"/><path class="61dcbb17-0e61-4a24-9cf7-e0a45863dce3" d="M3985.05664,852.45361h110.53272c2.45166,0,6.46289-2.00415,8.91406-4.45361s2.45117-4.45361,0-4.45361h-110.533c-2.45142,0-6.46265,2.00415-8.91382,4.45361C3982.60522,850.44946,3982.60522,852.45361,3985.05664,852.45361Z"/><path class="61dcbb17-0e61-4a24-9cf7-e0a45863dce3" d="M6681.44092,723.54639H6570.9082c-2.45166,0-6.46289,2.00415-8.91406,4.45361s-2.45117,4.45361,0,4.45361h110.53272c2.45166,0,6.46289-2.00415,8.91406-4.45361h0C6683.89209,725.55054,6683.89209,723.54639,6681.44092,723.54639Z"/><path class="61dcbb17-0e61-4a24-9cf7-e0a45863dce3" d="M8104.51074,844.54639H7993.978c-2.45117,0-6.4624,2.00415-8.91407,4.45361-2.45117,2.44946-2.45117,4.45361,0,4.45361h110.53321c2.45117,0,6.4624-2.00415,8.91357-4.45361C8106.9624,846.55054,8106.9624,844.54639,8104.51074,844.54639Z"/><path class="61dcbb17-0e61-4a24-9cf7-e0a45863dce3" d="M5610.63574,821.54639H5500.103c-2.45166,0-6.46289,2.00415-8.91407,4.45361s-2.45117,4.45361,0,4.45361h110.53272c2.45166,0,6.46289-2.00415,8.91406-4.45361S5613.08691,821.54639,5610.63574,821.54639Z"/><path class="61dcbb17-0e61-4a24-9cf7-e0a45863dce3" d="M8793.02832,710.54639H8682.49609c-2.45214,0-6.46289,2.00415-8.91406,4.45361s-2.45117,4.45361,0,4.45361h110.53223c2.45215,0,6.46289-2.00415,8.91406-4.45361S8795.47949,710.54639,8793.02832,710.54639Z"/><path class="61dcbb17-0e61-4a24-9cf7-e0a45863dce3" d="M3167.54443,830.64038H3057.01172c-2.41919,0-6.35156,1.9541-8.81055,4.35962-.03271.032-.07129.06177-.10351.094-2.45118,2.44947-2.45118,4.45362,0,4.45362h110.533c2.45141,0,6.46264-2.00415,8.91381-4.45362.03174-.03173.05835-.0625.08936-.094C3169.99072,832.59375,3169.96411,830.64038,3167.54443,830.64038Z"/><path class="61dcbb17-0e61-4a24-9cf7-e0a45863dce3" d="M1204.06812,710.64038H1093.5354c-2.41919,0-6.35144,1.9541-8.81042,4.35962-.03272.032-.07142.06177-.10364.094-2.4513,2.44947-2.4513,4.45362,0,4.45362h110.533c2.45129,0,6.46264-2.00415,8.91382-4.45362.03173-.03173.05834-.0625.08935-.094C1206.5144,712.59375,1206.48779,710.64038,1204.06812,710.64038Z"/><path class="61dcbb17-0e61-4a24-9cf7-e0a45863dce3" d="M1595.00513,698.54761h110.533c2.45117,0,6.46252-2.00415,8.91381-4.45362s2.45142-4.45361,0-4.45361H1603.91907c-2.4513,0-6.46253,2.00415-8.91394,4.45361S1592.55371,698.54761,1595.00513,698.54761Z"/><path class="61dcbb17-0e61-4a24-9cf7-e0a45863dce3" d="M3956.688,714.64038a7.52946,7.52946,0,0,0-2.10547.35962h114.02612a2.28823,2.28823,0,0,0-1.38769-.35962Z"/><path class="61dcbb17-0e61-4a24-9cf7-e0a45863dce3" d="M3947.77417,719.094c-2.45142,2.44947-2.45142,4.45362,0,4.45362h110.533c2.45117,0,6.4624-2.00415,8.91382-4.45362,1.83178-1.83032,2.29345-3.41137,1.38769-4.094H3954.58252A17.58621,17.58621,0,0,0,3947.77417,719.094Z"/><path class="61dcbb17-0e61-4a24-9cf7-e0a45863dce3" d="M5622.94092,714.64038a7.528,7.528,0,0,0-2.10547.35962h114.02588a2.28776,2.28776,0,0,0-1.3877-.35962Z"/><path class="61dcbb17-0e61-4a24-9cf7-e0a45863dce3" d="M5614.02686,719.094c-2.45118,2.44947-2.45118,4.45362,0,4.45362h110.53271c2.45166,0,6.46289-2.00415,8.91406-4.45362,1.832-1.83032,2.29346-3.41137,1.3877-4.094H5620.83545A17.58525,17.58525,0,0,0,5614.02686,719.094Z"/><path class="61dcbb17-0e61-4a24-9cf7-e0a45863dce3" d="M1029.77429,840H675.50787c-7.70575,0-20.31524,6.30005-28.02105,14s-7.70581,14,0,14h354.26641c7.70575,0,20.31525-6.30005,28.02094-14h.00012C1037.48,846.30005,1037.48,840,1029.77429,840Z"/><path class="61dcbb17-0e61-4a24-9cf7-e0a45863dce3" d="M3557.67505,700H3203.40869c-7.70605,0-20.31543,6.30005-28.02124,14-.33765.3374-.6416.66846-.94971,1-6.72241,7.23633-6.41821,13,.94971,13h354.26636c7.36816,0,19.20825-5.76367,26.96924-13,.35595-.33154.71411-.6626,1.05175-1h.00025C3565.38086,706.30005,3565.38086,700,3557.67505,700Z"/><path class="61dcbb17-0e61-4a24-9cf7-e0a45863dce3" d="M6731.061,828H6376.79443c-5.15527,0-12.50195,2.82739-19.11035,7a52.02271,52.02271,0,0,0-8.91064,7c-7.70557,7.69995-7.70557,14,0,14H6703.04c7.70557,0,20.31494-6.30005,28.021-14a23.04647,23.04647,0,0,0,5.10009-7C6737.90381,830.82739,6736.21631,828,6731.061,828Z"/><path class="61dcbb17-0e61-4a24-9cf7-e0a45863dce3" d="M8641.49707,821h-354.2666c-7.70508,0-20.31445,6.30005-28.02051,14s-7.70605,14,0,14h354.2666c7.70508,0,20.31543-6.30005,28.02051-14C8649.20313,827.30005,8649.20313,821,8641.49707,821Z"/><path class="61dcbb17-0e61-4a24-9cf7-e0a45863dce3" d="M935.70355,691H844.63507c-5.22894,0-13.78534,4.2749-19.01428,9.5h-.00006c-5.22888,5.2251-5.22888,9.5,0,9.5h91.06854c5.22888,0,13.78534-4.2749,19.01428-9.5S940.9325,691,935.70355,691Z"/><path class="61dcbb17-0e61-4a24-9cf7-e0a45863dce3" d="M1290.9707,821h-91.0686c-5.22888,0-13.78528,4.2749-19.01416,9.5a16.32081,16.32081,0,0,0-3.3606,4.5c-1.36108,2.9707-.2417,5,3.3606,5h91.06836c3.60229,0,8.78332-2.0293,13.36816-5a34.93854,34.93854,0,0,0,5.64624-4.5C1296.19958,825.2749,1296.19958,821,1290.9707,821Z"/><path class="61dcbb17-0e61-4a24-9cf7-e0a45863dce3" d="M1994.49963,710h91.06849c5.229,0,13.7854-4.2749,19.0144-9.5,5.22876-5.2251,5.22876-9.5,0-9.5h-91.0686c-5.229,0-13.7854,4.2749-19.01429,9.5S1989.27075,710,1994.49963,710Z"/><path class="61dcbb17-0e61-4a24-9cf7-e0a45863dce3" d="M8159.13477,696h-91.06836c-5.229,0-13.78565,4.2749-19.01465,9.5h0c-5.22852,5.2251-5.22852,9.5,0,9.5h91.06885c5.22851,0,13.78515-4.2749,19.01416-9.5S8164.36377,696,8159.13477,696Z"/><path class="61dcbb17-0e61-4a24-9cf7-e0a45863dce3" d="M3770.83521,826H3679.7666c-5.06006,0-13.227,4.00635-18.48828,9-.17554.1665-.35693.3313-.52588.5-5.229,5.2251-5.229,9.5,0,9.5h91.06836c5.229,0,13.7854-4.2749,19.01441-9.5.16894-.1687.31689-.3335.47485-.5C3776.04346,830.00635,3775.89526,826,3770.83521,826Z"/><path class="61dcbb17-0e61-4a24-9cf7-e0a45863dce3" d="M6425.83154,714h91.06836c5.229,0,13.78565-4.2749,19.01416-9.5h0c5.229-5.2251,5.229-9.5,0-9.5H6444.8457c-5.229,0-13.78515,4.2749-19.01416,9.5h0C6420.60254,709.7251,6420.60254,714,6425.83154,714Z"/><path class="61dcbb17-0e61-4a24-9cf7-e0a45863dce3" d="M5774.3418,842h-91.06885c-5.229,0-13.78516,4.2749-19.01416,9.5s-5.229,9.5,0,9.5h91.06836c5.229,0,13.78564-4.2749,19.01465-9.5C5779.57031,846.2749,5779.57031,842,5774.3418,842Z"/><path class="61dcbb17-0e61-4a24-9cf7-e0a45863dce3" d="M8847.65234,812H8756.584c-5.22851,0-13.78515,4.2749-19.01464,9.5h0c-5.22852,5.2251-5.22852,9.5,0,9.5h91.06836c5.22949,0,13.78613-4.2749,19.01464-9.5h0C8852.88086,816.2749,8852.88086,812,8847.65234,812Z"/><path class="61dcbb17-0e61-4a24-9cf7-e0a45863dce3" d="M3421.57275,851h-91.0686c-5.229,0-13.7854,4.2749-19.0144,9.5h0c-5.22876,5.2251-5.22876,9.5,0,9.5h91.0686c5.22876,0,13.7854-4.2749,19.0144-9.5C3426.80151,855.2749,3426.80151,851,3421.57275,851Z"/><path class="61dcbb17-0e61-4a24-9cf7-e0a45863dce3" d="M9165.8916,723h-91.06836c-5.22949,0-13.78515,4.2749-19.01465,9.5-5.22851,5.2251-5.22851,9.5,0,9.5H9146.877c5.2295,0,13.78614-4.2749,19.01465-9.5C9171.12109,727.2749,9171.12109,723,9165.8916,723Z"/><path class="61dcbb17-0e61-4a24-9cf7-e0a45863dce3" d="M5982.49805,701h-91.06836c-5.229,0-13.78516,4.2749-19.01416,9.5a16.322,16.322,0,0,0-3.36084,4.5c-1.36084,2.9707-.2417,5,3.36084,5h91.06836c3.602,0,8.7832-2.0293,13.36816-5a34.92647,34.92647,0,0,0,5.646-4.5C5987.72705,705.2749,5987.72705,701,5982.49805,701Z"/><path class="61dcbb17-0e61-4a24-9cf7-e0a45863dce3" d="M1365.02637,714h42.03149c2.20166,0,5.80444-1.80005,8.0061-4s2.20167-4,0-4h-42.03161c-2.20166,0-5.80432,1.80005-8.006,4h0C1362.82471,712.19995,1362.82471,714,1365.02637,714Z"/><path class="61dcbb17-0e61-4a24-9cf7-e0a45863dce3" d="M3221.42212,858h-42.03149c-2.20167,0-5.80445,1.80005-8.00611,4s-2.20166,4,0,4h42.0315c2.20166,0,5.80444-1.80005,8.0061-4S3223.62378,858,3221.42212,858Z"/><path class="61dcbb17-0e61-4a24-9cf7-e0a45863dce3" d="M6825.13184,711H6783.1001c-2.20166,0-5.8042,1.80005-8.00586,4s-2.20166,4,0,4h42.03125c2.20166,0,5.80469-1.80005,8.00635-4S6827.3335,711,6825.13184,711Z"/><path class="61dcbb17-0e61-4a24-9cf7-e0a45863dce3" d="M6079.57129,755h-42.03174c-2.20166,0-5.8042,1.80005-8.00586,4s-2.20166,4,0,4h42.03125c2.20166,0,5.80469-1.80005,8.00635-4S6081.77295,755,6079.57129,755Z"/><path class="61dcbb17-0e61-4a24-9cf7-e0a45863dce3" d="M8411.32422,710H8369.293c-2.20215,0-5.80469,1.80005-8.00586,4a8.70089,8.70089,0,0,0-.8584,1c-1.26855,1.71729-.99609,3,.8584,3h42.03125c1.85449,0,4.69434-1.28271,6.8623-3a13.34446,13.34446,0,0,0,1.14356-1C8413.52637,711.80005,8413.52637,710,8411.32422,710Z"/><path class="4d0fed84-d9fa-4d1a-8b80-673865a72dfe" d="M12690.07031,673c-27.20019,0-67.87695,17.58936-100.52539,42h-943.1582c16.208-24.41064,10.7373-42-16.46289-42H10321.28906c-27.19922,0-67.876,17.58936-100.52539,42H9504V835h593.93945c-26.67675,30.4375-24.29687,54,7.1875,54h1308.63477c31.48437,0,81.02441-23.5625,115.26855-54h937.68946c-26.67676,30.4375-24.29688,54,7.18847,54H13300V673ZM11498.5,700.5c5.22852-5.2251,13.78516-9.5,19.01367-9.5h91.06836c5.22949,0,5.22949,4.2749,0,9.5-5.22851,5.2251-13.78515,9.5-19.01367,9.5H11498.5C11493.27051,710,11493.27051,705.7251,11498.5,700.5Zm-399.49512-6.406c2.45215-2.44946,6.46289-4.45361,8.91407-4.45361h110.5332c2.45117,0,2.45117,2.00415,0,4.45361-2.45215,2.44947-6.46289,4.45362-8.91406,4.45362h-110.53321C11096.55371,698.54761,11096.55371,696.54346,11099.00488,694.094ZM10869.02637,710c2.20215-2.19995,5.80371-4,8.00586-4h42.03222c2.20118,0,2.20118,1.80005,0,4-2.20215,2.19995-5.80468,4-8.00683,4h-42.03125C10866.82422,714,10866.82422,712.19995,10869.02637,710Zm-539.40528-9.5c5.22852-5.2251,13.78516-9.5,19.01368-9.5h91.06836c5.22949,0,5.22949,4.2749,0,9.5-5.22852,5.2251-13.78516,9.5-19.01368,9.5h-91.06836C10324.3916,710,10324.3916,705.7251,10329.62109,700.5Zm267.91407,10.14038h110.5332c2.41992,0,2.44629,1.95337.08887,4.35962-.03028.03149-.05762.06226-.08887.094-2.45117,2.44947-6.46289,4.45362-8.91406,4.45362h-110.53321c-2.45117,0-2.45117-2.00415,0-4.45362.03223-.03222.07129-.062.10352-.094C10591.18359,712.59448,10595.11621,710.64038,10597.53516,710.64038ZM10533.77441,854c-7.70605,7.69995-20.31543,14-28.0205,14h-354.26758c-7.70508,0-7.70508-6.30005,0-14,7.70605-7.69995,20.3164-14,28.02148-14h354.2666C10541.48047,840,10541.48047,846.30005,10533.77441,854Zm528.55957,12.094c-2.45117,2.44947-6.46191,4.45362-8.91308,4.45362h-110.5332c-2.45118,0-2.45118-2.00415,0-4.45362s6.46289-4.45361,8.91406-4.45361H11062.334C11064.78613,861.64038,11064.78613,863.64453,11062.334,866.094ZM11409.43262,854c-3.30274,3.30005-8.70606,6-12.00879,6h-224.16895c-3.30175,0-3.30175-2.69995,0-6,3.30274-3.30005,8.707-6,12.00879-6h224.16895C11412.73535,848,11412.73535,850.7,11409.43262,854Zm-633.47657-14h-91.06835c-3.60254,0-4.72168-2.0293-3.36036-5a16.32905,16.32905,0,0,1,3.36036-4.5c5.22949-5.2251,13.78613-9.5,19.01464-9.5h91.06836c5.22852,0,5.22852,4.2749,0,9.5a34.95149,34.95149,0,0,1-5.64648,4.5C10784.74023,837.9707,10779.55859,840,10775.95605,840Zm1895.58887-4.906c-2.45117,2.44947-6.46289,4.45362-8.91406,4.45362h-110.5332c-2.45118,0-2.45118-2.00415,0-4.45362.03222-.03222.07031-.062.10351-.094,2.459-2.40552,6.3916-4.35962,8.81055-4.35962h110.5332c2.41895,0,2.44531,1.95337.08887,4.35962C12671.60254,835.03149,12671.57617,835.06226,12671.54492,835.094Zm53.877,26.906c-2.20118,2.19995-5.80469,4-8.00586,4h-42.03125c-2.20215,0-2.20215-1.80005,0-4,2.20117-2.19995,5.80468-4,8.00586-4h42.03125C12727.624,858,12727.624,859.80005,12725.42188,862Zm200.15039-1.5c-5.22852,5.2251-13.78516,9.5-19.01368,9.5h-91.06836c-5.22949,0-5.22949-4.2749,0-9.5,5.22852-5.2251,13.78516-9.5,19.01368-9.5h91.06836C12930.80176,851,12930.80176,855.2749,12925.57227,860.5Zm349.26269-25c-5.22851,5.2251-13.78516,9.5-19.01465,9.5H13164.752c-5.22851,0-5.22851-4.2749,0-9.5.16993-.1687.35059-.3335.52637-.5,5.26074-4.99365,13.42871-9,18.48828-9h91.06836c5.06055,0,5.208,4.00635.47559,9C13275.15234,835.1665,13275.00391,835.3313,13274.835,835.5ZM13033.6543,728h-354.2666c-7.36817,0-7.67286-5.76367-.9502-13,.30859-.33154.6123-.6626.9502-1,7.70605-7.69995,20.31543-14,28.0205-14h354.2666c7.70606,0,7.70606,6.30005,0,14-.33789.3374-.69628.66846-1.05175,1C13052.8623,722.23633,13041.02148,728,13033.6543,728Z"/><path class="61dcbb17-0e61-4a24-9cf7-e0a45863dce3" d="M11173.25488,860h224.16895c3.30224,0,8.70605-2.69995,12.00879-6s3.30273-6,0-6h-224.16846c-3.30225,0-8.70654,2.69995-12.00928,6C11169.95264,857.30005,11169.95264,860,11173.25488,860Z"/><path class="61dcbb17-0e61-4a24-9cf7-e0a45863dce3" d="M10942.8877,870.54761h110.5332c2.45117,0,6.4624-2.00415,8.91357-4.45362,2.45166-2.44946,2.45166-4.45361,0-4.45361h-110.53271c-2.45117,0-6.46289,2.00415-8.91406,4.45361S10940.43652,870.54761,10942.8877,870.54761Z"/><path class="61dcbb17-0e61-4a24-9cf7-e0a45863dce3" d="M12671.54492,830.64038h-110.5332c-2.419,0-6.35156,1.9541-8.81055,4.35962-.0332.032-.07129.06177-.10351.094-2.45118,2.44947-2.45118,4.45362,0,4.45362h110.5332c2.45117,0,6.46289-2.00415,8.91406-4.45362.03125-.03173.05762-.0625.08887-.094C12673.99023,832.59375,12673.96387,830.64038,12671.54492,830.64038Z"/><path class="61dcbb17-0e61-4a24-9cf7-e0a45863dce3" d="M10708.06836,710.64038h-110.5332c-2.41895,0-6.35157,1.9541-8.81055,4.35962-.03223.032-.07129.06177-.10352.094-2.45117,2.44947-2.45117,4.45362,0,4.45362h110.53321c2.45117,0,6.46289-2.00415,8.91406-4.45362.03125-.03173.05859-.0625.08887-.094C10710.51465,712.59375,10710.48828,710.64038,10708.06836,710.64038Z"/><path class="61dcbb17-0e61-4a24-9cf7-e0a45863dce3" d="M11099.00488,698.54761h110.53321c2.45117,0,6.4624-2.00415,8.91406-4.45362,2.45117-2.44946,2.45117-4.45361,0-4.45361H11107.919c-2.45118,0-6.46241,2.00415-8.91407,4.45361C11096.55371,696.54346,11096.55371,698.54761,11099.00488,698.54761Z"/><path class="61dcbb17-0e61-4a24-9cf7-e0a45863dce3" d="M10533.77441,840h-354.2666c-7.70556,0-20.31518,6.30005-28.021,14s-7.70581,14,0,14h354.2666c7.70556,0,20.31494-6.30005,28.021-14h0C10541.48,846.30005,10541.48,840,10533.77441,840Z"/><path class="61dcbb17-0e61-4a24-9cf7-e0a45863dce3" d="M13061.6748,700h-354.2666c-7.70507,0-20.31445,6.30005-28.0205,14-.3379.3374-.64161.66846-.9502,1-6.72266,7.23633-6.418,13,.9502,13h354.2666c7.36718,0,19.208-5.76367,26.96875-13,.35547-.33154.71386-.6626,1.05175-1C13069.38086,706.30005,13069.38086,700,13061.6748,700Z"/><path class="61dcbb17-0e61-4a24-9cf7-e0a45863dce3" d="M10439.70361,691h-91.06836c-5.229,0-13.78564,4.2749-19.01464,9.5h0c-5.229,5.2251-5.229,9.5,0,9.5h91.06884c5.22852,0,13.78516-4.2749,19.01416-9.5S10444.93262,691,10439.70361,691Z"/><path class="61dcbb17-0e61-4a24-9cf7-e0a45863dce3" d="M10794.9707,821h-91.06836c-5.22851,0-13.78515,4.2749-19.01464,9.5a16.32905,16.32905,0,0,0-3.36036,4.5c-1.36132,2.9707-.24218,5,3.36036,5h91.06835c3.60254,0,8.78418-2.0293,13.36817-5a34.95149,34.95149,0,0,0,5.64648-4.5C10800.19922,825.2749,10800.19922,821,10794.9707,821Z"/><path class="61dcbb17-0e61-4a24-9cf7-e0a45863dce3" d="M11498.49951,710h91.06885c5.22852,0,13.78516-4.2749,19.01416-9.5s5.229-9.5,0-9.5h-91.06885c-5.22851,0-13.78515,4.2749-19.01416,9.5S11493.27051,710,11498.49951,710Z"/><path class="61dcbb17-0e61-4a24-9cf7-e0a45863dce3" d="M13274.835,826h-91.06836c-5.05957,0-13.22754,4.00635-18.48828,9-.17578.1665-.35644.3313-.52637.5-5.22851,5.2251-5.22851,9.5,0,9.5h91.06836c5.22949,0,13.78614-4.2749,19.01465-9.5.16895-.1687.31738-.3335.47559-.5C13280.043,830.00635,13279.89551,826,13274.835,826Z"/><path class="61dcbb17-0e61-4a24-9cf7-e0a45863dce3" d="M12925.57275,851h-91.06884c-5.22852,0-13.78516,4.2749-19.01416,9.5s-5.229,9.5,0,9.5h91.06884c5.22852,0,13.78516-4.2749,19.01416-9.5S12930.80176,851,12925.57275,851Z"/><path class="61dcbb17-0e61-4a24-9cf7-e0a45863dce3" d="M10869.02637,714h42.03125c2.20215,0,5.80468-1.80005,8.00634-4s2.20167-4,0-4h-42.03173c-2.20166,0-5.8042,1.80005-8.00586,4S10866.82471,714,10869.02637,714Z"/><path class="61dcbb17-0e61-4a24-9cf7-e0a45863dce3" d="M12725.42188,858h-42.03125c-2.20167,0-5.80469,1.80005-8.00586,4-2.20215,2.19995-2.20215,4,0,4h42.03125c2.20166,0,5.80468-1.80005,8.00586-4C12727.624,859.80005,12727.624,858,12725.42188,858Z"/></g></svg>